<svg width="261" height="62" viewBox="0 0 261 62" fill="none" xmlns="http://www.w3.org/2000/svg">
<path d="M75.89 61.5V15.77H81.5V17.5C83.5894 16.3487 85.8634 15.5704 88.22 15.2C88.6675 15.1402 89.1185 15.1101 89.57 15.11C97.17 15.11 100.69 19.34 100.69 30.21C100.69 41.92 96.88 45.85 88.21 46.03H87.57C85.5333 45.9713 83.5041 45.7573 81.5 45.39V61.5H75.89ZM88.2 20.22C85.8718 20.4682 83.6027 21.1107 81.49 22.12V40.5C83.3936 40.7902 85.3147 40.9505 87.24 40.98C87.57 40.98 87.89 40.98 88.24 40.98C93.32 40.66 94.95 37.67 94.95 30.29C94.95 22.91 92.64 20.29 88.72 20.29C88.57 20.29 88.41 20.29 88.25 20.29L88.2 20.22ZM15.44 61.5V52.3H24.67V61.5H15.44ZM0 61.5V54.72H6.78V61.5H0ZM47.42 61.5V45.7H31.6V29.92H15.83V14.14H0V0H61.59V61.55L47.42 61.5ZM31.6 61.5V49.8H43.29V61.5H31.6ZM238.6 45.2V40.4C238.6 40.4 245.6 41.06 248.6 40.93C253.07 40.73 255.11 39.69 254.97 36.49C254.86 34.02 253.55 33.43 248.25 32.86C240.76 31.86 237.43 30.61 237.16 24.54C236.88 17.92 242.05 15.37 247.72 15.13C251.567 15.1312 255.41 15.3985 259.22 15.93V20.65C257.91 20.53 251.55 20 248.22 20.14C244.71 20.3 242.59 21.27 242.72 24.22C242.81 26.46 244.2 27.04 249.72 27.68C257.61 28.62 260.32 30.26 260.57 36.09C260.87 43.03 256.5 45.71 249.31 46.02H248.31C245.044 45.9285 241.785 45.6514 238.55 45.19L238.6 45.2ZM219.38 34.99V20.81H215.5V15.81H219.42V6.95H225.02V15.81H233.74V20.81H225.02V33.76C225.02 39.12 225.34 40.76 228.69 40.76C230.37 40.76 233.69 40.44 233.69 40.44L234.01 45.32C232.004 45.6891 229.977 45.9296 227.94 46.04C221.46 46.04 219.38 43.56 219.38 35.04V34.99ZM178.66 45.3V0H184.25V16.9C186.406 16.0419 188.665 15.4703 190.97 15.2C191.37 15.2 191.77 15.14 192.17 15.14C200.25 15.14 203.44 19.22 203.44 30.14C203.44 41.49 200.26 45.56 190.97 46C190.38 46 189.77 46 189.13 46C185.78 46 178.66 45.28 178.66 45.28V45.3ZM190.97 20.3C188.695 20.4608 186.442 20.8597 184.25 21.49V40.6C184.25 40.6 187.77 40.92 189.13 40.92C189.79 40.92 190.41 40.92 190.97 40.84C196.57 40.29 197.69 37.02 197.69 30.13C197.69 23.02 196.01 20.3 191.53 20.3H190.97ZM132.04 30.8C132.04 19.86 136.75 15.21 144.55 15.14H144.75C152.9 15.14 156.98 19.37 156.98 28.88L156.66 32.96H137.79C137.79 38.17 139.53 40.72 144.55 40.86H144.99C149.54 40.86 155.86 40.38 155.86 40.38L156.02 44.78C152.232 45.4811 148.399 45.9088 144.55 46.06H144.18C135.32 45.99 132.04 41.06 132.04 30.81V30.8ZM144.55 20.1C140.05 20.17 137.79 22.66 137.72 28.57H151.39C151.39 22.42 149.47 20.09 144.76 20.09L144.55 20.1ZM103.88 30.8C103.88 19.8 108.55 15.18 116.4 15.14H116.5C124.73 15.14 128.81 19.37 128.81 28.88L128.42 32.96H109.56C109.56 38.19 111.4 40.75 116.4 40.87H116.76C121.32 40.87 127.76 40.38 127.76 40.38L127.84 44.78C124.077 45.4859 120.266 45.9137 116.44 46.06H116.08C107.13 45.99 103.93 41.06 103.93 30.81L103.88 30.8ZM116.4 20.1C111.84 20.1 109.56 22.63 109.56 28.57H123.24C123.24 22.42 121.32 20.09 116.52 20.09L116.4 20.1ZM15.83 45.71V34.01H27.5V45.71H15.83ZM0 45.71V36.5H9.24001V45.74L0 45.71ZM206.66 45.43V15.77H212.26V45.43H206.66ZM160.19 45.43V15.78H165.79V19.3C168.712 17.2804 171.995 15.841 175.46 15.06V21.06C172.067 21.7441 168.804 22.959 165.79 24.66V45.44L160.19 45.43ZM0 29.93V18.24H11.7V29.93H0ZM206.67 13.61V7.38H212.27V13.61H206.67Z" fill="#30B254"/>
</svg>
